<?xml version="1.0" encoding="UTF-8" standalone="no"?>
<!-- Created with Inkscape (http://www.inkscape.org/) -->

<svg
   xmlns:dc="http://purl.org/dc/elements/1.1/"
   xmlns:cc="http://creativecommons.org/ns#"
   xmlns:rdf="http://www.w3.org/1999/02/22-rdf-syntax-ns#"
   xmlns:svg="http://www.w3.org/2000/svg"
   xmlns="http://www.w3.org/2000/svg"
   xmlns:sodipodi="http://sodipodi.sourceforge.net/DTD/sodipodi-0.dtd"
   xmlns:inkscape="http://www.inkscape.org/namespaces/inkscape"
   width="275.29443mm"
   height="275.29443mm"
   viewBox="0 0 275.29442 275.29443"
   version="1.1"
   id="svg8"
   inkscape:version="0.92.1 r15371"
   sodipodi:docname="icon.svg"
   inkscape:export-filename="/home/averissimo/work/apps/bitly/icons/icon-48.png"
   inkscape:export-xdpi="4.4299998"
   inkscape:export-ydpi="4.4299998">
  <defs
     id="defs2" />
  <sodipodi:namedview
     id="base"
     pagecolor="#ffffff"
     bordercolor="#666666"
     borderopacity="1.0"
     inkscape:pageopacity="0.0"
     inkscape:pageshadow="2"
     inkscape:zoom="0.175"
     inkscape:cx="-58.017577"
     inkscape:cy="685.60015"
     inkscape:document-units="mm"
     inkscape:current-layer="text4487"
     showgrid="false"
     fit-margin-top="10"
     fit-margin-left="10"
     fit-margin-bottom="10"
     fit-margin-right="10"
     inkscape:window-width="1038"
     inkscape:window-height="714"
     inkscape:window-x="882"
     inkscape:window-y="216"
     inkscape:window-maximized="0" />
  <metadata
     id="metadata5">
    <rdf:RDF>
      <cc:Work
         rdf:about="">
        <dc:format>image/svg+xml</dc:format>
        <dc:type
           rdf:resource="http://purl.org/dc/dcmitype/StillImage" />
        <dc:title />
      </cc:Work>
    </rdf:RDF>
  </metadata>
  <g
     inkscape:label="Layer 1"
     inkscape:groupmode="layer"
     id="layer1"
     transform="translate(-28.088921,170.43399)">
    <g
       aria-label="S"
       style="font-style:normal;font-variant:normal;font-weight:normal;font-stretch:normal;font-size:378.52120972px;line-height:266.47897339px;font-family:'Alegreya Sans';-inkscape-font-specification:'Alegreya Sans, Normal';text-align:start;letter-spacing:0px;word-spacing:0px;writing-mode:lr-tb;text-anchor:start;fill:#c57118;fill-opacity:0.81862745;stroke:none;stroke-width:0.26458296px;stroke-linecap:butt;stroke-linejoin:miter;stroke-opacity:1"
       id="text4487">
      <path
         d="m 274.75025,-131.58081 q 3.02817,4.54225 4.16373,9.84155 1.13556,4.92078 1.13556,10.22007 0,1.51409 -0.37852,3.40669 0,1.89261 0,3.40669 -1.51408,9.463034 -5.67782,18.547543 -4.16373,9.084509 -9.0845,16.276412 -8.70599,12.112679 -17.41198,24.225358 -8.32747,11.734157 -17.03345,23.846836 L 199.80305,-43.38537 q 8.70599,-12.112679 17.03345,-24.225357 8.70599,-12.112679 17.41198,-23.846837 1.51408,-1.892606 2.64965,-3.785212 1.13556,-2.271127 2.27112,-4.542254 1.13557,-2.64965 1.89261,-5.2993 1.13556,-3.02817 1.51408,-5.29929 -3.78521,-0.37853 -9.84155,1.13556 -5.67782,1.13556 -14.3838,4.54225 -4.92078,1.89261 -10.5986,4.16374 -5.29929,1.892603 -10.97711,4.542252 -4.16374,1.892606 -8.32747,4.163733 -3.78521,1.892606 -7.57042,4.163733 -2.27113,1.514085 -5.2993,3.785213 -3.02817,1.892606 -6.05634,4.542254 -5.2993,4.163733 -9.84155,9.46303 -4.16373,5.299297 -5.2993,10.598594 -0.37852,1.135564 -0.37852,1.892606 0,0.757043 0,1.514085 0,2.271127 0.75704,4.542255 1.13557,2.271127 3.02817,4.542254 12.11268,13.248242 24.22536,26.875006 12.4912,13.2482423 24.60388,26.4964847 3.78521,3.7852123 5.2993,8.7059873 1.8926,4.920776 2.64964,10.220073 0,0.757043 0,1.892606 0,0.757043 0,1.514085 0,5.677818 -1.13556,10.977115 -1.13556,5.299297 -3.40669,10.220073 -6.05634,14.383806 -18.92606,23.468315 -12.4912,8.705988 -28.76761,8.705988 H 51.422734 l 12.112678,-37.4736 q 24.603879,0 49.207758,0 24.9824,0 49.58628,0 5.67782,0 9.84155,-4.542255 4.54225,-4.542254 4.92078,-10.220072 -5.67782,-6.434861 -11.73416,-12.869721 -5.67782,-6.434861 -11.73416,-12.8697216 -6.05634,-6.4348606 -12.11268,-12.8697211 -5.67782,-6.4348603 -11.73416,-12.8697213 -7.1919,-7.570424 -10.59859,-16.654933 -3.02817,-9.46303 -3.02817,-18.926061 0.75704,-24.603878 19.30458,-42.015854 18.92606,-17.790492 41.25881,-28.767612 7.57043,-3.78521 14.76233,-6.81338 7.1919,-3.02817 14.00529,-5.67782 6.81338,-2.64965 15.14084,-4.54225 8.32747,-2.27113 16.65494,-3.02817 1.13556,0 2.27112,0 1.51409,0 2.64965,0 9.84155,0 18.16902,3.78521 8.70599,3.40669 14.38381,12.4912 z"
         style="font-style:normal;font-variant:normal;font-weight:normal;font-stretch:normal;font-family:Airstream;-inkscape-font-specification:Airstream;fill:#c57118;fill-opacity:0.81862745;stroke-width:0.26458296px"
         id="path4484" />
    </g>
  </g>
</svg>
