<?xml version="1.0" encoding="UTF-8" standalone="no"?>
<!-- Created with Inkscape (http://www.inkscape.org/) -->

<svg
   xmlns:dc="http://purl.org/dc/elements/1.1/"
   xmlns:cc="http://creativecommons.org/ns#"
   xmlns:rdf="http://www.w3.org/1999/02/22-rdf-syntax-ns#"
   xmlns:svg="http://www.w3.org/2000/svg"
   xmlns="http://www.w3.org/2000/svg"
   xmlns:sodipodi="http://sodipodi.sourceforge.net/DTD/sodipodi-0.dtd"
   xmlns:inkscape="http://www.inkscape.org/namespaces/inkscape"
   width="626.75177mm"
   height="626.75177mm"
   viewBox="0 0 626.75174 626.75177"
   version="1.1"
   id="svg8"
   inkscape:version="0.92.1 r15371"
   sodipodi:docname="Logo.svg"
   inkscape:export-filename="logo.png"
   inkscape:export-xdpi="2.5899999"
   inkscape:export-ydpi="2.5899999">
  <defs
     id="defs2" />
  <sodipodi:namedview
     id="base"
     pagecolor="#ffffff"
     bordercolor="#666666"
     borderopacity="1.0"
     inkscape:pageopacity="0.0"
     inkscape:pageshadow="2"
     inkscape:zoom="0.175"
     inkscape:cx="1115.3981"
     inkscape:cy="1533.2026"
     inkscape:document-units="mm"
     inkscape:current-layer="layer1"
     showgrid="false"
     fit-margin-top="10"
     fit-margin-left="10"
     fit-margin-bottom="10"
     fit-margin-right="10"
     inkscape:window-width="1920"
     inkscape:window-height="1053"
     inkscape:window-x="0"
     inkscape:window-y="27"
     inkscape:window-maximized="1" />
  <metadata
     id="metadata5">
    <rdf:RDF>
      <cc:Work
         rdf:about="">
        <dc:format>image/svg+xml</dc:format>
        <dc:type
           rdf:resource="http://purl.org/dc/dcmitype/StillImage" />
        <dc:title />
      </cc:Work>
    </rdf:RDF>
  </metadata>
  <g
     inkscape:label="Layer 1"
     inkscape:groupmode="layer"
     id="layer1"
     transform="translate(-41.422734,534.08958)">
    <path
       style="font-style:normal;font-variant:normal;font-weight:normal;font-stretch:normal;font-size:378.52120972px;line-height:266.47897339px;font-family:'Alegreya Sans';-inkscape-font-specification:'Alegreya Sans, Normal';text-align:start;letter-spacing:0px;word-spacing:0px;writing-mode:lr-tb;text-anchor:start;fill:#ffffff;fill-opacity:1;stroke:none;stroke-width:0.26458296px;stroke-linecap:butt;stroke-linejoin:miter;stroke-opacity:1"
       d="m 251.22622,-346.58567 c -44.55871,4.56081 -87.01356,26.28485 -117.39918,59.07633 -18.71863,23.59938 -21.8983,59.95495 -3.17414,84.50643 7.72689,11.22425 17.87107,20.44228 27.34021,30.13937 -27.13292,-0.22748 -54.26649,0.31336 -81.399187,0.009 -8.390202,25.95478 -16.779746,51.90979 -25.171305,77.864141 50.538522,-3.662872 101.842122,3.649786 152.189742,-4.255073 16.04821,-5.312528 29.38027,-17.410528 37.45943,-32.123428 2.30172,17.45856 16.35582,32.968414 34.09165,35.311653 9.15976,1.663361 18.39944,-1.426363 27.47224,0.656657 11.17925,0.546977 22.36432,-0.916435 33.53886,-0.146119 7.0053,-0.07268 15.71574,1.646956 21.61689,-2.503399 12.69601,6.216282 26.96007,0.94317 40.34289,2.607303 8.24828,0.09964 16.50026,0.169863 24.74547,-0.132072 1.7147,-8.606033 3.52594,-17.115863 6.1652,-25.472343 9.47613,17.58694 29.96928,27.653892 49.67185,26.044242 10.46742,-0.03485 21.05807,-1.329025 31.4034,0.16046 1.74502,-2.238962 3.06051,-4.922444 4.12481,-7.441542 20.89636,11.038282 45.339,5.88848 67.88222,6.775021 15.28885,-0.197921 31.1258,1.452683 46.03121,-2.336853 11.01655,-6.887948 11.2418,-21.340128 15.9972,-32.141808 4.6733,-14.01596 9.34403,-28.03279 14.01894,-42.04822 -8.67898,-0.52579 -17.37676,-0.24821 -26.06386,-0.45069 10.16008,-18.11501 12.03104,-42.89151 -1.76048,-59.70482 -16.10478,-20.48126 -45.76943,-26.12055 -69.72174,-17.86912 -19.98973,6.14404 -37.48543,19.28731 -50.03121,35.89992 -6.00679,-19.67272 -25.10833,-34.4873 -45.79038,-34.73146 -12.83493,-0.64057 -25.48659,3.36115 -36.72494,9.31898 -12.47702,-8.81086 -28.67821,-10.42538 -43.41865,-7.95736 -14.11897,-4.39175 -28.83813,-0.0322 -43.21796,-1.71619 -5.07714,0.6096 -11.88682,-1.19391 -15.93018,0.85549 -8.3405,24.36999 -15.38471,49.15704 -23.82843,73.47334 -16.96981,-8.4618 -39.64374,-4.26061 -51.77212,10.53118 0.34175,-6.09685 -1.41961,-13.03496 -2.44707,-18.3741 3.98561,-3.09918 6.06672,-6.95177 9.02598,-10.21957 18.13007,-28.54903 44.46258,-53.52951 51.80783,-87.70957 5.07216,-24.58647 -7.95024,-53.27834 -32.50068,-61.65109 -7.80323,-3.02918 -16.22011,-4.35887 -24.57451,-4.2445 z"
       id="text835"
       inkscape:connector-curvature="0"
       sodipodi:nodetypes="ccccccccccccccccccccccccccccccccccccccc" />
    <text
       xml:space="preserve"
       style="font-style:normal;font-variant:normal;font-weight:normal;font-stretch:normal;font-size:341.18551636px;line-height:240.19464111px;font-family:'Alegreya Sans';-inkscape-font-specification:'Alegreya Sans, Normal';text-align:start;letter-spacing:0px;word-spacing:0px;writing-mode:lr-tb;text-anchor:start;fill:#c57118;fill-opacity:1;stroke:none;stroke-width:0.26458296px;stroke-linecap:butt;stroke-linejoin:miter;stroke-opacity:1"
       x="81.063141"
       y="-116.38538"
       id="text4487"><tspan
         sodipodi:role="line"
         id="tspan4485"
         x="81.063141"
         y="-116.38538"
         style="font-style:normal;font-variant:normal;font-weight:normal;font-stretch:normal;font-family:Airstream;-inkscape-font-specification:Airstream;fill:#c57118;fill-opacity:1;stroke-width:0.26458296px">S.me</tspan></text>
  </g>
</svg>
